HIERARCHY
ROOT Hips
{
	OFFSET -0.001795 -0.223333 0.028219
	CHANNELS 6 Xposition Yposition Zposition Zrotation Yrotation Xrotation 
	JOINT LeftUpLeg
	{
		OFFSET 0.069520 -0.091406 -0.006815
		CHANNELS 3 Zrotation Yrotation Xrotation
		JOINT LeftLeg
		{
			OFFSET 0.034277 -0.375199 -0.004496
			CHANNELS 3 Zrotation Yrotation Xrotation
			JOINT LeftFoot
			{
				OFFSET -0.013596 -0.397961 -0.043693
				CHANNELS 3 Zrotation Yrotation Xrotation
				JOINT LeftToe
				{
					OFFSET 0.026358 -0.055791 0.119288
					CHANNELS 3 Zrotation Yrotation Xrotation
					End Site
					{
						OFFSET 0.000000 0.000000 0.000000
					}
				}
			}
		}
	}
	JOINT RightUpLeg
	{
		OFFSET -0.067670 -0.090522 -0.004320
		CHANNELS 3 Zrotation Yrotation Xrotation
		JOINT RightLeg
		{
			OFFSET -0.038290 -0.382569 -0.008850
			CHANNELS 3 Zrotation Yrotation Xrotation
			JOINT RightFoot
			{
				OFFSET 0.015774 -0.398415 -0.042312
				CHANNELS 3 Zrotation Yrotation Xrotation
				JOINT RightToe
				{
					OFFSET -0.025372 -0.048144 0.123348
					CHANNELS 3 Zrotation Yrotation Xrotation
					End Site
					{
						OFFSET 0.000000 0.000000 0.000000
					}
				}
			}
		}
	}
	JOINT Spine
	{
		OFFSET -0.002533 0.108963 -0.026696
		CHANNELS 3 Zrotation Yrotation Xrotation
		JOINT Spine1
		{
			OFFSET 0.005487 0.135180 0.001092
			CHANNELS 3 Zrotation Yrotation Xrotation
			JOINT Spine2
			{
				OFFSET 0.001457 0.052922 0.025425
				CHANNELS 3 Zrotation Yrotation Xrotation
				JOINT Neck
				{
					OFFSET -0.002778 0.213870 -0.042857
					CHANNELS 3 Zrotation Yrotation Xrotation
					JOINT Head
					{
						OFFSET 0.005152 0.064970 0.051349
						CHANNELS 3 Zrotation Yrotation Xrotation
						End Site
						{
							OFFSET 0.000000 0.000000 0.000000
						}
					}
				}
				JOINT LeftShoulder
				{
					OFFSET 0.078845 0.121749 -0.034090
					CHANNELS 3 Zrotation Yrotation Xrotation
					JOINT LeftArm
					{
						OFFSET 0.090977 0.030469 -0.008868
						CHANNELS 3 Zrotation Yrotation Xrotation
						JOINT LeftForeArm
						{
							OFFSET 0.259612 -0.012772 -0.027456
							CHANNELS 3 Zrotation Yrotation Xrotation
							JOINT LeftHand
							{
								OFFSET 0.249234 0.008986 -0.001171
								CHANNELS 3 Zrotation Yrotation Xrotation
								End Site
								{
									OFFSET 0.000000 0.000000 0.000000
								}
							}
						}
					}
				}
				JOINT RightShoulder
				{
					OFFSET -0.081759 0.118833 -0.038615
					CHANNELS 3 Zrotation Yrotation Xrotation
					JOINT RightArm
					{
						OFFSET -0.096012 0.032551 -0.009143
						CHANNELS 3 Zrotation Yrotation Xrotation
						JOINT RightForeArm
						{
							OFFSET -0.253742 -0.013329 -0.021401
							CHANNELS 3 Zrotation Yrotation Xrotation
							JOINT RightHand
							{
								OFFSET -0.255298 0.007772 -0.005559
								CHANNELS 3 Zrotation Yrotation Xrotation
								End Site
								{
									OFFSET 0.000000 0.000000 0.000000
								}
							}
						}
					}
				}
			}
		}
	}
}
MOTION
Frames: 9
Frame Time: 0.050000
0.000000 0.938351 0.000000 1.037624 1.898751 6.679546 6.306353 -0.370966 -4.524875 0.027778 0.178820 -5.358588 0.953293 5.823552 10.201692 0.000000 0.000000 0.000000 -5.665472 0.444194 -4.699006 -3.257100 0.149396 -2.882730 -2.180076 -8.273128 9.501129 0.000000 0.000000 0.000000 4.378485 0.306065 -5.805611 -2.572647 1.226103 -3.857228 -5.666067 5.005459 5.874405 3.543372 -1.345304 -8.552147 0.000000 0.000000 0.000000 -14.153618 -2.084303 -1.632981 -55.170494 -7.030422 -3.400205 -6.084585 -15.197858 1.201690 0.000000 0.000000 0.000000 10.979583 -6.171689 -2.922645 66.979253 3.762468 -3.606809 5.691000 21.955469 2.045179 0.000000 0.000000 0.000000 
0.000358 0.937413 0.000160 1.351315 2.050862 7.544469 5.866443 -0.379525 -4.328601 0.290852 0.223324 -7.052355 0.866628 5.926271 10.957118 0.000000 0.000000 0.000000 -5.811057 0.508762 -5.838400 -3.938489 0.236981 -2.430914 -2.173040 -8.351094 9.986226 0.000000 0.000000 0.000000 5.843983 0.377140 -6.528713 -3.529405 1.629379 -4.334651 -7.541721 5.833147 5.725173 2.173100 -0.164022 -9.456482 0.000000 0.000000 0.000000 -14.629400 -1.605675 -2.186695 -53.819239 -6.908946 -3.281955 -6.744773 -15.221043 1.251445 0.000000 0.000000 0.000000 11.154604 -7.876910 -3.607413 68.575961 2.731171 -4.014123 6.006628 21.312387 2.078357 0.000000 0.000000 0.000000 
0.000512 0.937250 0.000084 2.038824 2.236215 7.490554 5.094405 -0.419008 -5.136555 0.489642 0.137919 -4.949028 0.418366 4.758356 9.606101 0.000000 0.000000 0.000000 -6.703179 0.491192 -5.886197 -3.724171 0.232269 -2.271785 -2.679643 -9.329530 9.972205 0.000000 0.000000 0.000000 5.168836 0.352072 -6.410943 -3.308659 1.535504 -5.303229 -7.974197 5.087684 6.192812 1.454867 0.290889 -9.483687 0.000000 0.000000 0.000000 -14.344185 -1.387919 -2.105744 -53.698389 -6.753199 -3.422762 -6.612015 -14.593758 1.205127 0.000000 0.000000 0.000000 12.229945 -7.069960 -3.349741 66.604984 2.256328 -4.486884 7.141507 21.977326 2.343259 0.000000 0.000000 0.000000 
0.000569 0.937195 0.000075 2.556038 2.734116 7.700883 5.010212 -0.443920 -5.489640 0.203988 0.153779 -4.928993 -0.049906 4.087923 9.837363 0.000000 0.000000 0.000000 -7.042687 0.497414 -6.348674 -4.317083 0.284251 -2.290558 -3.055872 -10.129577 10.594203 0.000000 0.000000 0.000000 5.265326 0.350470 -6.469310 -3.958503 1.811078 -4.934369 -8.323406 4.331873 5.326311 0.390789 0.863075 -8.514226 0.000000 0.000000 0.000000 -14.380985 -0.754979 -2.356757 -53.673080 -7.093606 -3.185056 -5.593779 -15.033857 1.112375 0.000000 0.000000 0.000000 10.907961 -7.177952 -3.374772 67.306621 1.399177 -4.844917 8.158063 23.060403 2.645156 0.000000 0.000000 0.000000 
0.000486 0.937803 0.000021 3.077562 3.045346 7.804532 4.293448 -0.466056 -5.714556 0.306474 0.144013 -4.820560 -0.392478 3.574531 9.934697 0.000000 0.000000 0.000000 -7.458165 0.486076 -6.458962 -5.028669 0.350197 -2.253913 -3.193822 -10.413934 10.904479 0.000000 0.000000 0.000000 4.783122 0.347100 -6.602163 -3.506635 1.626670 -5.115870 -8.993853 4.270672 5.352194 -0.056950 1.260871 -9.177380 0.000000 0.000000 0.000000 -13.879265 -0.573778 -2.388828 -53.650720 -7.127828 -3.196912 -6.328402 -15.050486 1.200337 0.000000 0.000000 0.000000 10.714442 -7.644921 -3.553383 67.225554 0.882499 -5.084470 8.948323 23.561279 2.885298 0.000000 0.000000 0.000000 
0.000379 0.938508 0.000081 3.339081 2.682377 8.042118 4.033780 -0.488640 -6.060822 0.363551 0.124869 -4.372795 -0.114763 4.015044 9.939235 0.000000 0.000000 0.000000 -7.545728 0.500159 -6.621877 -5.442568 0.336269 -2.774997 -3.046052 -10.298997 11.635213 0.000000 0.000000 0.000000 4.826895 0.365033 -6.831183 -3.783258 1.734520 -5.386506 -9.030886 4.239107 5.338382 -0.279645 1.395520 -9.177756 0.000000 0.000000 0.000000 -14.082451 -0.011923 -2.647202 -53.367542 -7.103899 -3.175747 -6.275494 -15.144098 1.205071 0.000000 0.000000 0.000000 9.889759 -7.811470 -3.592516 67.720848 0.440139 -5.322247 9.462782 23.830323 3.013569 0.000000 0.000000 0.000000 
0.000190 0.939073 0.000152 3.571492 2.542830 8.136676 3.702405 -0.503141 -6.220132 0.303905 0.127521 -4.339047 -0.043906 4.244101 10.280591 0.000000 0.000000 0.000000 -7.654806 0.500311 -6.571932 -5.613932 0.332121 -2.959237 -3.089984 -10.402391 11.654908 0.000000 0.000000 0.000000 4.684551 0.368313 -6.922104 -3.832908 1.753190 -5.375964 -9.109048 3.993873 5.358379 -0.495416 1.551629 -9.488316 0.000000 0.000000 0.000000 -13.818734 0.415348 -2.735867 -53.446019 -6.500717 -3.466856 -6.931133 -16.197915 1.381662 0.000000 0.000000 0.000000 9.746844 -7.829215 -3.618262 67.771459 0.097126 -5.562557 9.937792 24.712460 3.235553 0.000000 0.000000 0.000000 
0.000091 0.939638 0.000224 3.834202 2.820229 8.486474 3.383001 -0.548101 -6.780079 0.180804 0.119379 -3.875805 -0.069894 4.188856 10.156608 0.000000 0.000000 0.000000 -7.776161 0.503430 -6.733619 -5.792129 0.347193 -2.961366 -3.326845 -10.831808 11.756732 0.000000 0.000000 0.000000 4.473720 0.382285 -7.286902 -3.799511 1.741213 -5.326411 -9.288922 3.750946 5.340494 -0.624816 1.604550 -9.208054 0.000000 0.000000 0.000000 -13.785114 1.025137 -2.996757 -53.135100 -6.063025 -3.637260 -7.609019 -17.557706 1.593761 0.000000 0.000000 0.000000 9.640183 -8.171347 -3.773458 67.893482 -0.195843 -5.724806 10.403691 25.426708 3.448629 0.000000 0.000000 0.000000 
-0.000006 0.939949 0.000248 4.122357 2.856621 8.538444 3.061759 -0.561695 -6.878207 -0.032649 0.128305 -3.712457 -0.075747 4.083113 9.875896 0.000000 0.000000 0.000000 -7.966160 0.496210 -6.628541 -5.884856 0.343168 -3.084745 -3.409238 -10.968154 11.667970 0.000000 0.000000 0.000000 4.257407 0.385795 -7.431914 -3.742530 1.718725 -5.227621 -9.371304 3.633535 5.279610 -0.579353 1.542517 -8.965373 0.000000 0.000000 0.000000 -13.295360 1.309285 -3.013458 -53.382583 -5.803632 -3.794392 -8.439444 -18.391684 1.796753 0.000000 0.000000 0.000000 9.435424 -8.071764 -3.717906 68.042131 -0.549090 -5.933825 10.731545 26.053856 3.617178 0.000000 0.000000 0.000000 
